<svg width="512" height="512" viewBox="0 0 512 512" xmlns="http://www.w3.org/2000/svg">
  <defs>
    <!-- Main gradient matching the app theme -->
    <linearGradient id="mainGradient" x1="0%" y1="0%" x2="100%" y2="100%">
      <stop offset="0%" style="stop-color:#667eea;stop-opacity:1" />
      <stop offset="100%" style="stop-color:#764ba2;stop-opacity:1" />
    </linearGradient>
    
    <!-- Camera body gradient -->
    <linearGradient id="cameraGradient" x1="0%" y1="0%" x2="100%" y2="100%">
      <stop offset="0%" style="stop-color:#ffffff;stop-opacity:0.95" />
      <stop offset="100%" style="stop-color:#f8fafc;stop-opacity:0.9" />
    </linearGradient>
    
    <!-- Lens gradient -->
    <linearGradient id="lensGradient" x1="0%" y1="0%" x2="100%" y2="100%">
      <stop offset="0%" style="stop-color:#1f2937;stop-opacity:1" />
      <stop offset="100%" style="stop-color:#374151;stop-opacity:1" />
    </linearGradient>
    
    <!-- Timeline dots gradient -->
    <linearGradient id="dotGradient" x1="0%" y1="0%" x2="100%" y2="100%">
      <stop offset="0%" style="stop-color:#8b5cf6;stop-opacity:1" />
      <stop offset="100%" style="stop-color:#a78bfa;stop-opacity:1" />
    </linearGradient>

    <!-- Drop shadow filter -->
    <filter id="dropshadow" x="-50%" y="-50%" width="200%" height="200%">
      <feDropShadow dx="0" dy="8" stdDeviation="12" flood-color="#000000" flood-opacity="0.15"/>
    </filter>
    
    <!-- Inner shadow filter -->
    <filter id="innershadow" x="-50%" y="-50%" width="200%" height="200%">
      <feOffset dx="0" dy="2"/>
      <feGaussianBlur stdDeviation="3" result="offset-blur"/>
      <feFlood flood-color="#000000" flood-opacity="0.1"/>
      <feComposite in2="offset-blur" operator="in"/>
    </filter>
  </defs>
  
  <!-- Background with rounded corners (macOS style) -->
  <rect width="512" height="512" rx="115" ry="115" fill="url(#mainGradient)" filter="url(#dropshadow)"/>
  
  <!-- Subtle highlight overlay -->
  <rect width="512" height="512" rx="115" ry="115" fill="url(#highlightGradient)" opacity="0.1"/>
  
  <!-- Camera body -->
  <rect x="140" y="180" width="232" height="152" rx="24" ry="24" fill="url(#cameraGradient)" filter="url(#dropshadow)"/>
  
  <!-- Camera top section -->
  <rect x="180" y="160" width="152" height="32" rx="12" ry="12" fill="url(#cameraGradient)" opacity="0.9"/>
  
  <!-- Viewfinder -->
  <rect x="200" y="140" width="32" height="16" rx="4" ry="4" fill="#374151" opacity="0.8"/>
  
  <!-- Main lens -->
  <circle cx="256" cy="256" r="45" fill="url(#lensGradient)" filter="url(#dropshadow)"/>
  <circle cx="256" cy="256" r="35" fill="#111827" opacity="0.9"/>
  <circle cx="256" cy="256" r="25" fill="#1f2937"/>
  
  <!-- Lens reflection -->
  <circle cx="245" cy="245" r="8" fill="#ffffff" opacity="0.3"/>
  
  <!-- Flash -->
  <rect x="310" y="165" width="20" height="12" rx="6" ry="6" fill="#f59e0b" opacity="0.8"/>
  
  <!-- Timeline dots below camera -->
  <circle cx="200" cy="380" r="8" fill="url(#dotGradient)" opacity="0.6"/>
  <circle cx="235" cy="380" r="8" fill="url(#dotGradient)" opacity="0.8"/>
  <circle cx="270" cy="380" r="8" fill="url(#dotGradient)"/>
  <circle cx="305" cy="380" r="8" fill="url(#dotGradient)" opacity="0.4"/>
  
  <!-- Progress line connecting dots -->
  <line x1="200" y1="380" x2="305" y2="380" stroke="url(#dotGradient)" stroke-width="3" opacity="0.6" stroke-linecap="round"/>
  
  <!-- Subtle sparkle effects -->
  <circle cx="180" cy="120" r="3" fill="#ffffff" opacity="0.6"/>
  <circle cx="340" cy="130" r="2" fill="#ffffff" opacity="0.4"/>
  <circle cx="380" cy="180" r="2.5" fill="#ffffff" opacity="0.5"/>
</svg> 